<svg id="svg" version="1.1" xmlns="http://www.w3.org/2000/svg" xmlns:xlink="http://www.w3.org/1999/xlink" width="400" height="400" viewBox="0, 0, 400,400"><g id="svgg"><path id="path0" d="M184.000 12.784 C 184.000 13.806,183.816 14.403,183.500 14.408 C 181.319 14.442,168.813 16.110,165.800 16.769 C 164.920 16.962,163.300 17.311,162.200 17.545 C 133.996 23.541,106.209 45.809,96.846 69.917 C 94.226 76.662,93.259 79.702,92.428 83.800 C 92.205 84.900,91.838 86.645,91.611 87.677 C 91.170 89.691,91.047 94.400,91.435 94.400 C 91.565 94.400,92.835 93.349,94.259 92.064 C 106.003 81.465,127.066 82.221,137.972 93.634 C 139.085 94.798,140.000 95.148,140.000 94.409 C 140.000 93.574,145.537 89.509,148.980 87.816 C 154.027 85.334,157.040 84.694,163.600 84.708 C 168.711 84.720,170.002 84.909,174.600 86.319 C 177.521 87.215,184.277 91.311,184.733 92.464 C 185.355 94.032,185.600 91.594,185.600 83.842 L 185.600 74.883 183.700 73.667 C 176.334 68.952,167.075 69.584,160.650 75.240 L 158.797 76.871 156.849 75.136 C 154.282 72.847,151.755 71.612,148.069 70.844 C 142.824 69.751,137.157 71.116,132.681 74.551 C 130.374 76.321,129.885 76.147,130.192 73.665 C 133.109 50.049,155.010 30.880,181.396 28.846 C 184.184 28.632,184.608 28.498,184.719 27.800 C 185.355 23.768,190.000 23.355,190.000 27.331 C 190.000 28.550,190.623 28.800,193.656 28.800 C 194.970 28.800,196.890 28.985,197.923 29.211 C 198.955 29.438,200.700 29.811,201.800 30.041 C 202.900 30.271,204.250 30.605,204.800 30.783 C 205.350 30.961,206.610 31.339,207.600 31.623 C 208.590 31.907,209.571 32.288,209.780 32.470 C 209.989 32.651,210.391 32.800,210.673 32.800 C 213.279 32.800,224.976 40.110,230.009 44.884 C 238.385 52.829,244.800 65.554,244.800 74.225 C 244.800 76.785,244.842 76.764,243.025 75.100 C 236.353 68.991,224.813 69.019,218.038 75.162 L 216.277 76.760 214.487 75.184 C 207.942 69.423,197.363 68.943,190.700 74.105 L 189.200 75.267 189.294 96.334 C 189.355 110.004,189.427 113.092,189.500 105.130 L 189.611 92.859 192.100 90.989 C 204.523 81.650,222.462 82.491,233.500 92.930 L 235.624 94.939 237.112 93.517 C 248.857 82.298,267.677 81.419,280.110 91.508 C 281.601 92.718,282.971 93.976,283.155 94.305 C 283.809 95.475,284.045 94.029,283.612 91.504 C 283.375 90.127,282.986 87.830,282.747 86.400 C 281.931 81.526,279.727 74.026,277.941 70.040 C 276.160 66.070,275.766 65.288,273.919 62.075 C 267.599 51.081,260.533 43.080,250.001 34.995 C 240.273 27.527,224.820 20.253,213.532 17.828 C 212.139 17.528,209.740 17.011,208.200 16.679 C 204.579 15.896,200.511 15.284,197.000 14.993 C 191.265 14.517,191.259 14.515,191.122 12.869 L 191.000 11.400 187.500 11.284 L 184.000 11.169 184.000 12.784 " stroke="none" fill="#151d1d" fill-rule="evenodd"></path><path id="path1" d="M166.200 101.364 C 150.626 108.956,138.259 111.837,115.100 113.271 C 106.286 113.816,106.482 113.746,109.101 115.398 C 113.603 118.237,119.851 125.649,122.178 130.913 C 125.750 138.991,125.599 136.430,125.600 189.187 C 125.600 242.744,125.785 248.496,127.847 259.200 C 131.941 280.453,144.454 296.345,160.432 300.584 C 164.547 301.675,175.522 301.287,181.200 299.849 C 193.559 296.719,207.956 288.811,222.365 277.237 C 225.963 274.348,225.785 273.878,225.906 286.598 L 226.013 297.729 238.072 297.464 C 244.704 297.319,254.241 297.200,259.265 297.200 L 268.400 297.200 268.400 199.200 C 268.400 101.467,268.398 101.200,267.600 101.200 C 267.160 101.200,266.800 101.380,266.800 101.600 C 266.800 101.820,266.440 102.000,266.000 102.000 C 265.560 102.000,265.200 102.180,265.200 102.400 C 265.200 102.620,264.947 102.800,264.638 102.800 C 264.153 102.800,262.880 103.352,259.905 104.850 C 259.523 105.043,258.936 105.200,258.600 105.200 C 258.264 105.200,257.632 105.380,257.195 105.600 C 256.758 105.820,256.042 106.180,255.605 106.400 C 255.168 106.620,254.459 106.800,254.029 106.800 C 253.599 106.800,253.136 106.980,253.000 107.200 C 252.864 107.420,252.324 107.600,251.800 107.600 C 251.276 107.600,250.736 107.780,250.600 108.000 C 250.464 108.220,249.924 108.400,249.400 108.400 C 248.876 108.400,248.348 108.560,248.227 108.756 C 248.106 108.951,247.421 109.208,246.704 109.327 C 245.987 109.445,244.590 109.746,243.600 109.996 C 235.928 111.931,220.893 113.582,210.500 113.631 C 208.905 113.638,207.608 113.769,207.617 113.922 C 207.661 114.620,212.929 118.031,213.336 117.624 C 213.948 117.012,217.020 117.101,217.556 117.747 C 217.895 118.155,217.895 118.795,217.555 120.265 L 217.100 122.236 219.129 125.257 C 222.541 130.336,224.217 134.467,225.568 141.131 C 225.866 142.599,226.000 161.695,226.000 202.599 L 226.000 261.936 222.234 265.400 C 217.558 269.700,207.901 277.200,207.040 277.200 C 206.927 277.200,205.972 277.705,204.918 278.321 C 191.325 286.268,179.497 281.459,174.125 265.800 C 171.343 257.690,171.475 261.203,171.302 190.400 C 171.122 116.476,171.029 118.888,174.607 104.772 C 176.429 97.584,175.078 97.037,166.200 101.364 " stroke="none" fill="#fc603f" fill-rule="evenodd"></path><path id="path2" d="M0.000 200.000 L 0.000 400.000 200.000 400.000 L 400.000 400.000 400.000 200.000 L 400.000 0.000 200.000 0.000 L 0.000 0.000 0.000 200.000 M191.522 12.468 L 191.644 13.936 194.722 14.175 C 231.524 17.040,261.969 36.505,277.021 66.794 C 282.292 77.400,286.955 99.973,282.779 94.664 C 273.290 82.601,250.698 82.004,238.016 93.481 L 235.528 95.733 234.264 94.354 C 224.073 83.238,202.125 82.127,191.500 92.191 L 190.400 93.232 190.400 106.616 C 190.400 115.272,190.259 120.000,190.000 120.000 C 189.780 120.000,189.600 119.586,189.600 119.080 C 189.600 118.574,189.418 117.978,189.196 117.756 C 188.933 117.493,188.829 109.958,188.896 95.976 L 189.000 74.600 191.200 73.129 C 198.222 68.434,208.257 69.096,214.506 74.666 L 216.012 76.009 218.106 74.345 C 225.576 68.408,236.480 68.589,243.353 74.764 L 244.505 75.800 244.250 73.182 C 242.098 51.123,216.280 29.283,192.248 29.194 C 190.152 29.186,189.849 28.954,189.382 27.000 C 188.730 24.271,185.600 24.607,185.600 27.406 C 185.600 28.870,185.105 29.200,182.912 29.200 C 168.927 29.200,149.967 38.730,140.801 50.367 C 134.926 57.826,130.417 68.476,130.874 73.812 L 131.000 75.279 132.600 74.000 C 139.531 68.458,150.674 68.752,157.201 74.649 L 158.774 76.070 160.687 74.460 C 167.231 68.954,176.927 68.518,184.279 73.400 L 186.430 74.828 186.315 97.309 C 186.207 118.348,186.155 119.798,185.500 119.924 C 184.845 120.050,184.800 119.205,184.800 106.645 C 184.800 91.449,185.135 93.008,181.292 90.337 C 169.535 82.167,151.622 83.755,141.137 93.896 L 139.273 95.698 137.337 93.818 C 125.417 82.247,104.232 82.217,93.222 93.755 C 91.123 95.954,90.800 95.720,90.800 92.001 C 90.800 71.812,107.568 45.326,129.477 30.909 C 143.735 21.526,167.126 14.000,182.028 14.000 C 183.090 14.000,183.200 13.874,183.200 12.667 C 183.200 10.802,183.305 10.759,187.580 10.886 L 191.400 11.000 191.522 12.468 M175.692 98.906 C 176.173 99.620,175.833 102.525,174.838 106.200 C 173.907 109.641,173.450 111.866,172.582 117.200 C 171.722 122.484,171.739 251.030,172.600 256.435 C 174.222 266.612,176.512 272.062,181.133 276.744 C 190.116 285.847,203.258 281.948,222.212 264.555 L 225.600 261.445 225.596 204.623 C 225.592 133.743,225.867 136.776,218.403 125.200 C 216.530 122.295,216.479 122.137,216.791 120.200 C 216.967 119.100,217.031 118.065,216.932 117.900 C 216.592 117.332,213.983 117.578,213.745 118.200 C 213.427 119.027,212.661 118.951,211.809 118.009 C 211.415 117.575,210.040 116.540,208.754 115.709 C 205.916 113.879,205.536 113.209,207.313 113.176 C 225.187 112.842,242.423 110.365,251.800 106.784 C 252.240 106.616,253.635 106.100,254.900 105.639 C 260.140 103.727,262.026 102.929,266.514 100.720 C 275.486 96.305,276.993 97.200,274.860 105.673 C 273.693 110.309,273.153 112.809,272.418 116.967 C 271.707 120.992,271.851 266.483,272.570 271.235 C 274.739 285.544,279.810 293.303,289.041 296.434 C 289.898 296.725,290.771 297.107,290.980 297.282 C 291.189 297.457,291.684 297.600,292.080 297.600 C 292.476 297.600,292.800 297.780,292.800 298.000 C 292.800 298.263,281.333 298.400,259.200 298.400 L 225.600 298.400 225.600 287.424 C 225.600 281.387,225.465 276.364,225.299 276.261 C 225.134 276.159,223.829 276.969,222.399 278.060 C 211.650 286.266,205.664 290.155,197.800 294.038 C 190.744 297.523,187.243 298.842,180.800 300.442 C 151.992 307.598,130.921 288.464,126.005 250.684 C 125.751 248.724,125.599 229.052,125.596 197.684 C 125.593 146.766,125.491 142.819,124.042 137.600 C 123.829 136.830,123.534 135.750,123.387 135.200 C 121.650 128.688,115.746 120.730,109.200 116.076 C 106.623 114.244,106.018 113.680,106.006 113.100 C 106.003 112.935,108.737 112.800,112.082 112.800 C 122.802 112.800,135.230 111.302,144.400 108.906 C 148.611 107.805,149.012 107.691,151.000 107.027 C 152.100 106.660,153.360 106.199,153.800 106.002 C 154.240 105.806,155.904 105.189,157.497 104.632 C 159.090 104.075,162.690 102.491,165.497 101.111 C 171.892 97.968,174.659 97.370,175.692 98.906 " stroke="none" fill="#fbfbfb" fill-rule="evenodd"></path><path id="path3" d="M171.800 98.340 C 171.140 98.485,168.304 99.732,165.497 101.111 C 162.690 102.491,159.090 104.075,157.497 104.632 C 155.904 105.189,154.240 105.806,153.800 106.002 C 152.799 106.450,149.392 107.591,147.800 108.013 C 147.140 108.188,145.610 108.595,144.400 108.918 C 143.190 109.241,141.480 109.640,140.600 109.804 C 139.720 109.968,139.230 110.186,139.511 110.288 C 141.410 110.978,157.418 105.631,166.271 101.349 C 175.148 97.056,176.430 97.582,174.607 104.772 C 171.029 118.888,171.122 116.476,171.302 190.400 C 171.475 261.203,171.343 257.690,174.125 265.800 C 179.497 281.459,191.325 286.268,204.918 278.321 C 205.972 277.705,206.927 277.200,207.040 277.200 C 207.901 277.200,217.558 269.700,222.234 265.400 L 226.000 261.936 226.000 202.599 C 226.000 161.695,225.866 142.599,225.568 141.131 C 224.217 134.467,222.541 130.336,219.129 125.257 L 217.100 122.236 217.555 120.265 C 217.895 118.795,217.895 118.155,217.556 117.747 C 217.020 117.101,213.948 117.012,213.336 117.624 C 212.929 118.031,207.661 114.620,207.617 113.922 C 207.608 113.769,208.905 113.638,210.500 113.631 C 220.893 113.582,235.928 111.931,243.600 109.996 C 244.590 109.746,245.987 109.445,246.704 109.327 C 247.421 109.208,248.106 108.951,248.227 108.756 C 248.348 108.560,248.876 108.400,249.400 108.400 C 249.924 108.400,250.464 108.220,250.600 108.000 C 250.736 107.780,251.276 107.600,251.800 107.600 C 252.324 107.600,252.864 107.420,253.000 107.200 C 253.136 106.980,253.599 106.800,254.029 106.800 C 254.459 106.800,255.168 106.620,255.605 106.400 C 256.042 106.180,256.758 105.820,257.195 105.600 C 257.632 105.380,258.264 105.200,258.600 105.200 C 258.936 105.200,259.523 105.043,259.905 104.850 C 262.880 103.352,264.153 102.800,264.638 102.800 C 264.947 102.800,265.200 102.620,265.200 102.400 C 265.200 102.180,265.560 102.000,266.000 102.000 C 266.440 102.000,266.800 101.820,266.800 101.600 C 266.800 101.380,267.160 101.200,267.600 101.200 C 268.398 101.200,268.400 101.467,268.400 199.200 L 268.400 297.200 259.265 297.200 C 254.241 297.200,244.704 297.319,238.072 297.464 L 226.013 297.729 225.906 286.598 C 225.785 273.878,225.963 274.348,222.365 277.237 C 196.283 298.186,171.650 306.079,155.244 298.743 C 141.617 292.649,131.381 277.863,127.858 259.184 C 126.592 252.468,126.490 252.059,126.443 253.469 C 126.355 256.073,128.655 265.647,130.606 270.800 C 139.881 295.298,158.129 306.073,180.800 300.442 C 187.243 298.842,190.744 297.523,197.800 294.038 C 205.664 290.155,211.650 286.266,222.399 278.060 C 223.829 276.969,225.134 276.159,225.299 276.261 C 225.465 276.364,225.600 281.387,225.600 287.424 L 225.600 298.400 259.200 298.400 C 281.333 298.400,292.800 298.263,292.800 298.000 C 292.800 297.780,292.476 297.600,292.080 297.600 C 291.684 297.600,291.189 297.457,290.980 297.282 C 290.771 297.107,289.898 296.725,289.041 296.434 C 279.810 293.303,274.739 285.544,272.570 271.235 C 271.851 266.483,271.707 120.992,272.418 116.967 C 273.153 112.809,273.693 110.309,274.860 105.673 C 276.993 97.200,275.486 96.305,266.514 100.720 C 262.026 102.929,260.140 103.727,254.900 105.639 C 253.635 106.100,252.240 106.616,251.800 106.784 C 242.423 110.365,225.187 112.842,207.313 113.176 C 205.536 113.209,205.916 113.879,208.754 115.709 C 210.040 116.540,211.415 117.575,211.809 118.009 C 212.661 118.951,213.427 119.027,213.745 118.200 C 213.983 117.578,216.592 117.332,216.932 117.900 C 217.031 118.065,216.967 119.100,216.791 120.200 C 216.479 122.137,216.530 122.295,218.403 125.200 C 225.867 136.776,225.592 133.743,225.596 204.623 L 225.600 261.445 222.212 264.555 C 203.258 281.948,190.116 285.847,181.133 276.744 C 176.512 272.062,174.222 266.612,172.600 256.435 C 171.739 251.030,171.722 122.484,172.582 117.200 C 173.450 111.866,173.907 109.641,174.838 106.200 C 176.759 99.102,176.101 97.399,171.800 98.340 M135.200 110.819 C 134.430 111.005,132.720 111.292,131.400 111.459 C 129.808 111.660,129.375 111.811,130.115 111.909 C 131.236 112.057,138.358 110.976,138.733 110.601 C 139.035 110.298,136.789 110.437,135.200 110.819 M121.600 112.400 C 119.806 112.679,119.808 112.680,122.200 112.705 C 123.520 112.719,125.500 112.590,126.600 112.418 L 128.600 112.107 126.000 112.114 C 124.570 112.117,122.590 112.246,121.600 112.400 M106.006 113.100 C 106.018 113.680,106.623 114.244,109.200 116.076 C 115.019 120.213,120.204 126.691,122.391 132.555 C 122.628 133.191,122.915 133.618,123.028 133.505 C 124.569 131.964,114.394 118.736,109.101 115.398 C 106.601 113.822,106.693 113.610,109.900 113.548 C 116.985 113.411,118.673 112.930,112.300 112.865 C 108.835 112.829,106.003 112.935,106.006 113.100 M123.329 134.900 C 123.452 135.395,123.776 136.700,124.050 137.800 C 124.324 138.900,124.615 139.502,124.696 139.138 C 124.858 138.415,123.679 134.000,123.325 134.000 C 123.205 134.000,123.207 134.405,123.329 134.900 M124.875 141.200 C 124.872 141.970,125.010 143.500,125.182 144.600 L 125.493 146.600 125.507 144.200 C 125.514 142.880,125.376 141.350,125.200 140.800 C 124.910 139.893,124.879 139.931,124.875 141.200 M125.630 243.433 C 125.646 246.055,125.810 249.010,125.995 250.000 C 126.202 251.110,126.247 249.348,126.113 245.400 C 125.854 237.804,125.588 236.720,125.630 243.433 " stroke="none" fill="#fc966a" fill-rule="evenodd"></path><path id="path4" d="M183.480 11.053 C 183.326 11.207,183.200 11.933,183.200 12.667 C 183.200 13.874,183.090 14.000,182.028 14.000 C 167.126 14.000,143.735 21.526,129.477 30.909 C 107.568 45.326,90.800 71.812,90.800 92.001 C 90.800 95.720,91.123 95.954,93.222 93.755 C 104.232 82.217,125.417 82.247,137.337 93.818 L 139.273 95.698 141.137 93.896 C 151.622 83.755,169.535 82.167,181.292 90.337 C 185.135 93.008,184.800 91.449,184.800 106.645 C 184.800 119.205,184.845 120.050,185.500 119.924 C 186.155 119.798,186.207 118.348,186.315 97.309 L 186.430 74.828 184.279 73.400 C 176.927 68.518,167.231 68.954,160.687 74.460 L 158.774 76.070 157.201 74.649 C 150.674 68.752,139.531 68.458,132.600 74.000 L 131.000 75.279 130.874 73.812 C 130.417 68.476,134.926 57.826,140.801 50.367 C 149.967 38.730,168.927 29.200,182.912 29.200 C 185.105 29.200,185.600 28.870,185.600 27.406 C 185.600 24.607,188.730 24.271,189.382 27.000 C 189.849 28.954,190.152 29.186,192.248 29.194 C 216.280 29.283,242.098 51.123,244.250 73.182 L 244.505 75.800 243.353 74.764 C 236.480 68.589,225.576 68.408,218.106 74.345 L 216.012 76.009 214.506 74.666 C 208.257 69.096,198.222 68.434,191.200 73.129 L 189.000 74.600 188.896 95.976 C 188.829 109.958,188.933 117.493,189.196 117.756 C 189.418 117.978,189.600 118.574,189.600 119.080 C 189.600 119.586,189.780 120.000,190.000 120.000 C 190.259 120.000,190.400 115.272,190.400 106.616 L 190.400 93.232 191.500 92.191 C 202.125 82.127,224.073 83.238,234.264 94.354 L 235.528 95.733 238.016 93.481 C 250.698 82.004,273.290 82.601,282.779 94.664 C 286.955 99.973,282.292 77.400,277.021 66.794 C 261.969 36.505,231.524 17.040,194.722 14.175 L 191.644 13.936 191.522 12.468 L 191.400 11.000 187.580 10.886 C 185.479 10.824,183.634 10.899,183.480 11.053 M191.122 12.869 C 191.259 14.515,191.265 14.517,197.000 14.993 C 200.511 15.284,204.579 15.896,208.200 16.679 C 209.740 17.011,212.139 17.528,213.532 17.828 C 224.820 20.253,240.273 27.527,250.001 34.995 C 260.533 43.080,267.599 51.081,273.919 62.075 C 275.766 65.288,276.160 66.070,277.941 70.040 C 279.727 74.026,281.931 81.526,282.747 86.400 C 282.986 87.830,283.375 90.127,283.612 91.504 C 284.045 94.029,283.809 95.475,283.155 94.305 C 282.084 92.392,275.327 87.826,271.736 86.589 C 259.219 82.278,246.139 84.895,237.112 93.517 L 235.624 94.939 233.500 92.930 C 222.462 82.491,204.523 81.650,192.100 90.989 L 189.611 92.859 189.500 105.130 C 189.427 113.092,189.355 110.004,189.294 96.334 L 189.200 75.267 190.700 74.105 C 197.363 68.943,207.942 69.423,214.487 75.184 L 216.277 76.760 218.038 75.162 C 224.813 69.019,236.353 68.991,243.025 75.100 C 244.842 76.764,244.800 76.785,244.800 74.225 C 244.800 65.554,238.385 52.829,230.009 44.884 C 224.976 40.110,213.279 32.800,210.673 32.800 C 210.391 32.800,209.989 32.651,209.780 32.470 C 209.571 32.288,208.590 31.907,207.600 31.623 C 206.610 31.339,205.350 30.961,204.800 30.783 C 204.250 30.605,202.900 30.271,201.800 30.041 C 200.700 29.811,198.955 29.438,197.923 29.211 C 196.890 28.985,194.970 28.800,193.656 28.800 C 190.623 28.800,190.000 28.550,190.000 27.331 C 190.000 23.355,185.355 23.768,184.719 27.800 C 184.608 28.498,184.184 28.632,181.396 28.846 C 155.010 30.880,133.109 50.049,130.192 73.665 C 129.885 76.147,130.374 76.321,132.681 74.551 C 140.030 68.911,150.139 69.156,156.849 75.136 L 158.797 76.871 160.650 75.240 C 167.075 69.584,176.334 68.952,183.700 73.667 L 185.600 74.883 185.600 83.842 C 185.600 91.594,185.355 94.032,184.733 92.464 C 184.277 91.311,177.521 87.215,174.600 86.319 C 170.002 84.909,168.711 84.720,163.600 84.708 C 157.040 84.694,154.027 85.334,148.980 87.816 C 145.537 89.509,140.000 93.574,140.000 94.409 C 140.000 95.148,139.085 94.798,137.972 93.634 C 127.066 82.221,106.003 81.465,94.259 92.064 C 92.835 93.349,91.565 94.400,91.435 94.400 C 91.047 94.400,91.170 89.691,91.611 87.677 C 91.838 86.645,92.205 84.900,92.428 83.800 C 93.259 79.702,94.226 76.662,96.846 69.917 C 106.209 45.809,133.996 23.541,162.200 17.545 C 163.300 17.311,164.920 16.962,165.800 16.769 C 168.813 16.110,181.319 14.442,183.500 14.408 C 183.816 14.403,184.000 13.806,184.000 12.784 L 184.000 11.169 187.500 11.284 L 191.000 11.400 191.122 12.869 " stroke="none" fill="#a6aaaa" fill-rule="evenodd"></path></g></svg>